# xmcd CD database file
#
# Track frame offsets:
#	150
#	16159
#	34909
#	53302
#	76111
#	95912
#	120666
#	141516
#	157566
#	166095
#	187658
#	195956
#	206114
#	219245
#	232379
#	254830
#
# Disc length: 3568 seconds
#
# Revision: 1
# Processed by: cddbd v1.5.2PL0 Copyright (c) Steve Scherf et al.
# Submitted via: CDex 1.51
#
DISCID=ce0dee10
DTITLE=Maria Volonte - Maria Volonte-Portrait
DYEAR=2010
DGENRE=Jazz
TTITLE0=Yo Soy Maria
TTITLE1=9 Vidas
TTITLE2=La Flor de la Canela
TTITLE3=Macorina 
TTITLE4=Vuelvo al Sur
TTITLE5=Gracias a la Vida
TTITLE6=El Ultimo Cafe
TTITLE7=Parte del Juego
TTITLE8=Estranha Forma de Vida
TTITLE9=Que he Sacado con Quererte
TTITLE10=Valsinha
TTITLE11=La Luz de un Fosforo
TTITLE12=Apologia Tanguera
TTITLE13=Condename a Callar
TTITLE14=Nostalgias
TTITLE15=Vidala para mi Sombra
EXTD=YEAR: 2010
EXTT0=
EXTT1=
EXTT2=
EXTT3=
EXTT4=
EXTT5=
EXTT6=
EXTT7=
EXTT8=
EXTT9=
EXTT10=
EXTT11=
EXTT12=
EXTT13=
EXTT14=
EXTT15=
PLAYORDER=
